<svg xmlns="http://www.w3.org/2000/svg" xmlns:svg="http://www.w3.org/2000/svg" xmlns:xlink="http://www.w3.org/1999/xlink" id="svg8" width="500" height="500" version="1.1" viewBox="0 0 132.292 132.292"><defs id="defs2"><linearGradient id="linearGradient858"><stop style="stop-color:#d400dc;stop-opacity:1" id="stop854" offset="0"/><stop style="stop-color:#0096cc;stop-opacity:1" id="stop856" offset="1"/></linearGradient><filter id="filter5014" width="1.077" height="1.077" x="-.038" y="-.038" style="color-interpolation-filters:sRGB"><feGaussianBlur id="feGaussianBlur5016" stdDeviation="1.905"/></filter><linearGradient id="linearGradient860" x1="40.407" x2="99.444" y1="34.169" y2="92.377" gradientTransform="translate(0,0.425202)" gradientUnits="userSpaceOnUse" xlink:href="#linearGradient858"/><filter style="color-interpolation-filters:sRGB" id="filter876" width="1.226" height="1.256" x="-.113" y="-.128"><feGaussianBlur id="feGaussianBlur878" stdDeviation="4.275"/></filter></defs><metadata id="metadata5"/><g id="layer1" style="display:inline"><circle id="circle3352" cx="66.146" cy="68.065" r="59.531" style="display:inline;opacity:.36;fill:#000;fill-opacity:1;fill-rule:evenodd;stroke-width:.256424;filter:url(#filter5014)"/><circle style="display:inline;fill:#fff;fill-opacity:1;fill-rule:evenodd;stroke-width:.256424" id="path1917" cx="66.146" cy="66.146" r="59.531"/></g><g id="layer2" style="display:inline"><path id="path843" d="m 66.107284,29.259234 c 22.175412,0 40.140276,18.045089 40.140276,40.100194 0,22.055119 -17.964864,40.100212 -40.140276,40.100212 -14.075163,0 -26.385927,-7.29824 -33.563861,-18.325797 l 6.335822,-5.012521 C 44.533381,95.304255 54.598528,101.4396 66.147387,101.4396 A 32.08016,32.08016 0 0 0 98.227522,69.359428 32.08016,32.08016 0 0 0 66.147387,37.279278 c -16.360882,0 -29.83455,12.270663 -31.799462,28.070137 H 45.415579 L 30.418115,80.306791 15.460739,65.349415 h 10.78695 C 28.252705,45.09881 45.335389,29.259234 66.107284,29.259234 m 11.869662,33.042569 c 2.005017,0.0394 3.649121,1.644106 3.649121,3.689208 v 18.486191 c 0,2.005013 -1.644104,3.689223 -3.689223,3.689223 H 55.761432 c -2.045104,0 -3.689208,-1.68421 -3.689208,-3.689223 V 65.991011 c 0,-2.045102 1.644104,-3.64912 3.649104,-3.689208 v -4.050132 c 0,-6.135323 5.012538,-11.107743 11.107759,-11.107743 6.135337,0 11.147859,4.97242 11.147859,11.107743 v 4.050132 M 66.829087,52.757947 c -3.007507,0 -5.493726,2.446114 -5.493726,5.493724 v 4.050132 h 11.027553 v -4.050132 c 0,-3.04761 -2.486202,-5.493724 -5.533827,-5.493724 z" style="display:inline;opacity:.16;fill:#000;fill-opacity:1;stroke-width:4.01002;filter:url(#filter876)"/><path style="fill:url(#linearGradient860);fill-opacity:1;stroke-width:4.01002" id="path862" d="m 66.107284,27 c 22.175412,0 40.140276,18.045089 40.140276,40.100194 0,22.055119 -17.964864,40.100216 -40.140276,40.100216 -14.075163,0 -26.385927,-7.298245 -33.563861,-18.325801 l 6.335822,-5.012521 c 5.654136,9.182933 15.719283,15.318281 27.268142,15.318281 A 32.08016,32.08016 0 0 0 98.227522,67.100194 32.08016,32.08016 0 0 0 66.147387,35.020044 c -16.360882,0 -29.83455,12.270663 -31.799462,28.070137 H 45.415579 L 30.418115,78.047557 15.460739,63.090181 h 10.78695 C 28.252705,42.839576 45.335389,27 66.107284,27 m 11.869662,33.042569 c 2.005017,0.0394 3.649121,1.644106 3.649121,3.689208 v 18.486191 c 0,2.005013 -1.644104,3.689223 -3.689223,3.689223 H 55.761432 c -2.045104,0 -3.689208,-1.68421 -3.689208,-3.689223 V 63.731777 c 0,-2.045102 1.644104,-3.64912 3.649104,-3.689208 v -4.050132 c 0,-6.135323 5.012538,-11.107743 11.107759,-11.107743 6.135337,0 11.147859,4.97242 11.147859,11.107743 v 4.050132 M 66.829087,50.498713 c -3.007507,0 -5.493726,2.446114 -5.493726,5.493724 v 4.050132 h 11.027553 v -4.050132 c 0,-3.04761 -2.486202,-5.493724 -5.533827,-5.493724 z"/></g></svg>